<svg width="22" height="27" viewBox="0 0 22 27" fill="none" xmlns="http://www.w3.org/2000/svg">
<path d="M15.0938 18.4493L15.6076 17.7883L14.4144 16.2359L13.9007 16.8969L15.0938 18.4493ZM17.3332 17.5114L19.4885 19.0272L20.2967 17.104L18.1414 15.5882L17.3332 17.5114ZM19.9034 22.0398L18.3008 24.1012L19.4939 25.6536L21.0965 23.5922L19.9034 22.0398ZM17.3243 24.765C15.6887 24.9621 11.4568 24.7864 6.87505 18.8926L5.6819 20.445C10.6818 26.8766 15.4406 27.1907 17.4813 26.9446L17.3243 24.765ZM6.87505 18.8926C2.50765 13.2747 1.78419 8.54957 1.69414 6.49966L0.0046803 6.62387C0.118012 9.2039 1.01382 14.4404 5.6819 20.445L6.87505 18.8926ZM8.42658 9.87293L8.75012 9.45671L7.55702 7.90436L7.23346 8.32056L8.42658 9.87293ZM9.00767 4.15137L7.58517 1.69311L6.23052 3.00505L7.65302 5.46333L9.00767 4.15137ZM2.80077 1.15805L1.03007 3.43577L2.22322 4.98814L3.99392 2.71042L2.80077 1.15805ZM7.83002 9.09675C7.23346 8.32056 7.23184 8.32265 7.23184 8.32265L7.2302 8.32478L7.22683 8.32919C7.22454 8.33221 7.22217 8.33534 7.21973 8.33861C7.21485 8.34517 7.20968 8.35226 7.20424 8.35991C7.19336 8.37519 7.18141 8.39267 7.16862 8.41242C7.14304 8.4519 7.11406 8.50051 7.0836 8.55867C7.02254 8.67526 6.956 8.82942 6.89954 9.02329C6.78432 9.41887 6.72256 9.94034 6.79999 10.5861C6.95143 11.8489 7.62369 13.517 9.34577 15.7321L10.5389 14.1797C8.92735 12.1067 8.54345 10.8452 8.47215 10.2505C8.4382 9.96743 8.47339 9.82812 8.4831 9.79514C8.48896 9.77474 8.49178 9.77265 8.48456 9.78659C8.48095 9.7934 8.47497 9.80407 8.46561 9.81845C8.46098 9.82564 8.45546 9.83379 8.44903 9.84287C8.44575 9.8474 8.44237 9.85218 8.43853 9.85718C8.43673 9.85969 8.43481 9.86225 8.43278 9.86487L8.42973 9.86886L8.42816 9.87089C8.42816 9.87089 8.42658 9.87293 7.83002 9.09675ZM9.34577 15.7321C11.0684 17.948 12.3638 18.8103 13.3416 19.0044C13.8412 19.1035 14.2441 19.0244 14.5497 18.8772C14.6995 18.8049 14.8189 18.7198 14.9091 18.6416C14.9542 18.6025 14.9919 18.5653 15.0225 18.5325C15.0378 18.5161 15.0514 18.5008 15.0632 18.4868C15.0692 18.4798 15.0747 18.4732 15.0798 18.4669C15.0824 18.4637 15.0848 18.4606 15.0871 18.4577L15.0905 18.4533L15.0922 18.4513C15.0922 18.4513 15.0938 18.4493 14.4972 17.673C13.9007 16.8969 13.9023 16.8948 13.9023 16.8948L13.9038 16.8928L13.9069 16.8888C13.909 16.8864 13.911 16.8839 13.9129 16.8814C13.9168 16.8766 13.9205 16.8722 13.924 16.868C13.931 16.8598 13.9373 16.8526 13.943 16.8468C13.954 16.8348 13.9623 16.8273 13.9674 16.8227C13.9778 16.8137 13.9757 16.8178 13.959 16.8258C13.9314 16.8391 13.8207 16.8848 13.5982 16.8405C13.132 16.7482 12.1499 16.2519 10.5389 14.1797L9.34577 15.7321ZM7.58517 1.69311C6.43526 -0.294042 4.17407 -0.608477 2.80077 1.15805L3.99392 2.71042C4.59372 1.93886 5.65898 2.01739 6.23052 3.00505L7.58517 1.69311ZM1.69414 6.49966C1.67195 5.99453 1.85102 5.46689 2.22322 4.98814L1.03007 3.43577C0.423902 4.2155 -0.0526397 5.31927 0.0046803 6.62387L1.69414 6.49966ZM18.3008 24.1012C17.9908 24.5001 17.6585 24.7247 17.3243 24.765L17.4813 26.9446C18.3101 26.8446 18.9891 26.3031 19.4939 25.6536L18.3008 24.1012ZM8.75012 9.45671C9.86076 8.02805 9.94334 5.76826 9.00767 4.15137L7.65302 5.46333C8.10822 6.24993 8.04053 7.28239 7.55702 7.90436L8.75012 9.45671ZM19.4885 19.0272C20.4111 19.6761 20.5548 21.2018 19.9034 22.0398L21.0965 23.5922C22.6086 21.6472 22.1423 18.4018 20.2967 17.104L19.4885 19.0272ZM15.6076 17.7883C16.0408 17.2311 16.7381 17.093 17.3332 17.5114L18.1414 15.5882C16.919 14.7284 15.4019 14.9659 14.4144 16.2359L15.6076 17.7883Z" fill="#303030"/>
</svg>
