<svg width="42" height="49" viewBox="0 0 42 49" fill="none" xmlns="http://www.w3.org/2000/svg">
<path d="M19.3965 46.9418C19.9097 47.2209 20.1665 47.3604 20.5225 47.4327C20.8 47.489 21.2 47.489 21.4775 47.4327C21.8335 47.3604 22.0903 47.2209 22.6035 46.9418C27.35 44.3619 41 35.9307 41 24.2956V14.4307C41 12.3455 41 11.3029 40.673 10.4067C40.3842 9.61497 39.915 8.90851 39.3057 8.34842C38.6162 7.71441 37.6805 7.34834 35.809 6.61616L22.4045 1.37211C21.8848 1.16878 21.625 1.06712 21.3575 1.0268C21.1205 0.991067 20.8795 0.991067 20.6425 1.0268C20.375 1.06712 20.1152 1.16878 19.5955 1.37211L6.191 6.61616C4.3195 7.34834 3.38375 7.71441 2.69415 8.34842C2.08495 8.90851 1.61568 9.61497 1.3269 10.4067C1 11.3029 1 12.3455 1 14.4307V24.2956C1 35.9307 14.6499 44.3619 19.3965 46.9418Z" stroke="#AEE1F3" stroke-width="2" stroke-linecap="round" stroke-linejoin="round"/>
</svg>
