<svg width="54" height="54" viewBox="0 0 54 54" fill="none" xmlns="http://www.w3.org/2000/svg">
<path d="M25.6592 1.23047C26.341 0.901192 27.1384 0.924943 27.8037 1.30078H27.8047C28.3629 1.61654 28.6656 2.22634 28.8779 2.72656C29.114 3.28268 29.3658 4.04448 29.6758 4.97949L33.8516 17.5771C34.0573 18.1975 34.0923 18.2549 34.1143 18.2822H34.1152C34.1571 18.3344 34.2071 18.371 34.2578 18.3926L34.3672 18.4082C34.4898 18.4195 34.6541 18.4235 34.9414 18.4297L47.6582 18.7012C48.5999 18.7213 49.3753 18.7374 49.959 18.8018C50.4579 18.8568 51.0713 18.9645 51.5254 19.3574L51.6143 19.4404L51.7168 19.5498C52.2116 20.111 52.4201 20.874 52.292 21.6104C52.1829 22.2379 51.7337 22.725 51.335 23.1016C50.9013 23.5111 50.2856 24.0002 49.5342 24.5977L39.3984 32.6553C38.9085 33.045 38.8653 33.0968 38.8477 33.126L38.8486 33.127C38.8122 33.1883 38.7885 33.2616 38.7832 33.3398C38.7802 33.3856 38.7868 33.4613 38.9658 34.082L42.6494 46.8486C42.9227 47.7962 43.146 48.5674 43.2666 49.1621C43.3766 49.7049 43.4669 50.3667 43.2041 50.9404C42.8698 51.67 42.1944 52.1982 41.3867 52.3125H41.3857C40.7374 52.4037 40.1312 52.0857 39.6768 51.8105C39.1704 51.504 38.5364 51.0402 37.7627 50.4756L27.3223 42.8574C27.0868 42.6857 26.9499 42.587 26.8428 42.5195C26.7813 42.4808 26.7506 42.4662 26.7402 42.4619V42.4609C26.6898 42.4481 26.6376 42.4481 26.5879 42.4609C26.6024 42.4571 26.5834 42.4584 26.4863 42.5195C26.3792 42.587 26.2422 42.6857 26.0068 42.8574L15.5664 50.4756C14.7927 51.0402 14.1588 51.504 13.6523 51.8105C13.2261 52.0686 12.6663 52.3647 12.0635 52.3252L11.9424 52.3125C11.1347 52.1982 10.4593 51.67 10.125 50.9404C9.86219 50.3667 9.95248 49.7049 10.0625 49.1621C10.1831 48.5673 10.4063 47.7962 10.6797 46.8486L14.3623 34.083C14.5422 33.4594 14.5489 33.3852 14.5459 33.3398C14.5406 33.262 14.5171 33.1886 14.4805 33.127V33.126C14.4629 33.097 14.4201 33.0447 13.9307 32.6553L3.79492 24.5977C3.04348 24.0002 2.42782 23.511 1.99414 23.1016C1.59528 22.725 1.14629 22.2378 1.03711 21.6104C0.900525 20.825 1.14658 20.0093 1.71484 19.4404L1.80371 19.3574C2.25786 18.9645 2.87139 18.8567 3.37012 18.8018C3.95371 18.7374 4.72846 18.7213 5.66992 18.7012L18.3867 18.4297C18.6743 18.4235 18.8392 18.4195 18.9619 18.4082C19.0292 18.402 19.0605 18.3954 19.0713 18.3926L19.1465 18.3486C19.1704 18.3304 19.193 18.3082 19.2139 18.2822C19.2359 18.2548 19.2712 18.1976 19.4766 17.5781L23.6533 4.97949C23.9633 4.04446 24.215 3.28271 24.4512 2.72656C24.6636 2.22631 24.9661 1.61653 25.5244 1.30078L25.6592 1.23047Z" stroke="#AEE1F3" stroke-width="2" stroke-linecap="round" stroke-linejoin="round"/>
</svg>
